<svg width="115" height="34" viewBox="0 0 115 34" fill="none" xmlns="http://www.w3.org/2000/svg">
<path d="M74.08 28.304L83.58 31.304L91.58 23.304L101.58 30.304L112.08 28.304L107.58 13.804L91.58 18.804L82.58 13.804L73.08 15.304L74.08 28.304Z" fill="#F1A501"/>
<path d="M0 23.368V21.206L6.118 20.102V23.092C6.14867 24.7173 6.56267 25.944 7.36 26.772C8.188 27.5693 9.27667 27.968 10.626 27.968C11.9447 27.968 12.9873 27.5387 13.754 26.68C14.5513 25.8213 14.95 24.6713 14.95 23.23V0.689999H21.298V23.23C21.298 26.2353 20.3013 28.7807 18.308 30.866C16.3147 32.9513 13.7693 33.994 10.672 33.994C7.452 33.994 4.86067 33.028 2.898 31.096C0.966 29.1333 0 26.5573 0 23.368Z" fill="black"/>
<path d="M22.7567 27.14C22.7567 25.208 23.3854 23.6593 24.6427 22.494C25.9 21.3287 27.5254 20.5927 29.5187 20.286L35.0847 19.458C36.2194 19.3047 36.7867 18.768 36.7867 17.848C36.7867 16.9893 36.4494 16.284 35.7747 15.732C35.1307 15.18 34.1954 14.904 32.9687 14.904C31.6807 14.904 30.6534 15.2567 29.8867 15.962C29.1507 16.6673 28.7367 17.5413 28.6447 18.584L23.2167 17.434C23.4314 15.4713 24.3974 13.7387 26.1147 12.236C27.832 10.7333 30.1014 9.982 32.9227 9.982C36.296 9.982 38.78 10.7947 40.3747 12.42C41.9694 14.0147 42.7667 16.0693 42.7667 18.584V29.716C42.7667 31.0653 42.8587 32.2613 43.0427 33.304H37.4307C37.2774 32.6293 37.2007 31.7247 37.2007 30.59C35.7594 32.8287 33.536 33.948 30.5307 33.948C28.2 33.948 26.314 33.2733 24.8727 31.924C23.462 30.5747 22.7567 28.98 22.7567 27.14ZM31.8187 29.394C33.26 29.394 34.4407 28.9953 35.3607 28.198C36.3114 27.37 36.7867 26.0207 36.7867 24.15V23.138L31.6807 23.92C29.81 24.196 28.8747 25.1467 28.8747 26.772C28.8747 27.508 29.1354 28.1367 29.6567 28.658C30.178 29.1487 30.8987 29.394 31.8187 29.394Z" fill="black"/>
<path d="M66.7377 0V29.21C66.7377 30.7127 66.7991 32.0773 66.9217 33.304H61.0797C60.9264 32.5373 60.8497 31.6633 60.8497 30.682C60.3284 31.6327 59.5004 32.3993 58.3657 32.982C57.2617 33.5647 55.9737 33.856 54.5017 33.856C51.2817 33.856 48.6291 32.7367 46.5437 30.498C44.4891 28.2287 43.4617 25.3767 43.4617 21.942C43.4617 18.5993 44.4737 15.7933 46.4977 13.524C48.5524 11.2547 51.1591 10.12 54.3177 10.12C57.5684 10.12 59.6997 11.0553 60.7117 12.926V0H66.7377ZM49.6257 21.942C49.6257 23.9353 50.1471 25.5147 51.1897 26.68C52.2324 27.8147 53.5817 28.382 55.2377 28.382C56.8631 28.382 58.1971 27.7993 59.2397 26.634C60.2824 25.4687 60.8037 23.8893 60.8037 21.896C60.8037 19.9333 60.2824 18.4 59.2397 17.296C58.1971 16.1613 56.8631 15.594 55.2377 15.594C53.6124 15.594 52.2631 16.1613 51.1897 17.296C50.1471 18.4307 49.6257 19.9793 49.6257 21.942Z" fill="black"/>
<path d="M75.7667 26.726C76.9013 27.8607 78.266 28.428 79.8607 28.428C81.4553 28.428 82.8047 27.8607 83.9087 26.726C85.0433 25.5913 85.6107 24.012 85.6107 21.988C85.6107 19.964 85.0433 18.3847 83.9087 17.25C82.8047 16.1153 81.4553 15.548 79.8607 15.548C78.266 15.548 76.9013 16.1153 75.7667 17.25C74.6627 18.3847 74.1107 19.964 74.1107 21.988C74.1107 24.012 74.6627 25.5913 75.7667 26.726ZM71.3507 13.386C73.62 11.1167 76.4567 9.982 79.8607 9.982C83.2647 9.982 86.086 11.1167 88.3247 13.386C90.594 15.6553 91.7287 18.5227 91.7287 21.988C91.7287 25.4533 90.594 28.3207 88.3247 30.59C86.086 32.8593 83.2647 33.994 79.8607 33.994C76.4567 33.994 73.62 32.8593 71.3507 30.59C69.112 28.3207 67.9927 25.4533 67.9927 21.988C67.9927 18.5227 69.112 15.6553 71.3507 13.386Z" fill="black"/>
<path d="M98.95 26.726C100.085 27.8607 101.449 28.428 103.044 28.428C104.639 28.428 105.988 27.8607 107.092 26.726C108.227 25.5913 108.794 24.012 108.794 21.988C108.794 19.964 108.227 18.3847 107.092 17.25C105.988 16.1153 104.639 15.548 103.044 15.548C101.449 15.548 100.085 16.1153 98.95 17.25C97.846 18.3847 97.294 19.964 97.294 21.988C97.294 24.012 97.846 25.5913 98.95 26.726ZM94.534 13.386C96.8033 11.1167 99.64 9.982 103.044 9.982C106.448 9.982 109.269 11.1167 111.508 13.386C113.777 15.6553 114.912 18.5227 114.912 21.988C114.912 25.4533 113.777 28.3207 111.508 30.59C109.269 32.8593 106.448 33.994 103.044 33.994C99.64 33.994 96.8033 32.8593 94.534 30.59C92.2953 28.3207 91.1759 25.4533 91.1759 21.988C91.1759 18.5227 92.2953 15.6553 94.534 13.386Z" fill="black"/>
</svg>
