<svg width="167" height="154" viewBox="0 0 167 154" fill="none" xmlns="http://www.w3.org/2000/svg">
<path d="M96.1744 86.8472C94.8161 87.1514 93.4931 87.715 92.2875 88.5024C89.1467 90.5037 87.3194 93.3604 88.2064 94.8826C89.0933 96.4047 92.3584 96.0154 95.4992 94.0141C96.721 93.2545 97.8063 92.2837 98.6885 91.1618C99.0979 90.6197 99.1714 89.9442 98.8761 89.4393L97.7239 87.4619C97.4308 86.9554 96.8227 86.7145 96.1744 86.8472Z" fill="#D5D6DB"/>
<path d="M88.2874 59.8541C87.3025 60.0748 86.343 60.4837 85.4688 61.0547C83.1919 62.5055 81.8662 64.5769 82.5088 65.6797C83.1514 66.7825 85.5198 66.4999 87.7964 65.0493C88.6823 64.4982 89.4693 63.794 90.1091 62.9803C90.4055 62.5874 90.4587 62.098 90.2447 61.732L89.4104 60.3002C89.1981 59.933 88.7575 59.758 88.2874 59.8541Z" fill="#D5D6DB"/>
<path d="M75.4732 60.9845C75.254 60.9601 75.0201 61.0185 74.8174 61.148L69.4692 64.5562C69.0218 64.8404 68.8428 65.3878 69.0698 65.779C69.1217 65.8686 69.1927 65.9451 69.2789 66.0041L82.4606 75.0891L100.294 63.7244L75.4732 60.9845Z" fill="#029BC5"/>
<path d="M131.85 59.6999L83.3182 90.252L54.6055 101.677L39.9623 104.588L38.3514 101.851L119.246 51.9043C121.657 50.4095 124.343 49.4919 127.032 49.2448C128.209 49.1429 129.372 49.1821 130.493 49.3609C131.487 49.5116 132.43 49.8023 133.294 50.2244C134.258 50.7026 136.092 50.7578 136.687 51.7106C136.689 51.7091 138.091 56.0835 131.85 59.6999V59.6999Z" fill="#E1E6E9"/>
<path d="M83.9615 86.2095L62.9662 119.679C62.704 120.15 62.8597 120.676 63.3135 120.855C63.5921 120.965 63.933 120.922 64.2194 120.74L69.5634 117.35C70.5913 116.697 71.5014 115.869 72.2375 114.915L112.954 67.0462L83.9615 86.2095Z" fill="#029BC5"/>
<path d="M30.9819 85.092C30.6317 84.9723 30.2149 85.0344 29.8631 85.2584L25.4456 88.0718C24.8437 88.4549 24.6038 89.1913 24.9097 89.717C24.9679 89.8169 25.0436 89.9049 25.1344 89.9773L37.5111 99.8896L50.5241 91.7615L30.9819 85.092Z" fill="#029BC5"/>
<path d="M41.6595 101.677L34.998 111.006C34.9004 111.14 34.9233 111.308 35.0493 111.382C35.1401 111.435 35.2641 111.425 35.3649 111.358L39.4932 108.742C39.5252 108.721 39.5543 108.696 39.5783 108.667L49.3118 96.832L41.6595 101.677Z" fill="#029BC5"/>
<path d="M129.697 49.7631C128.542 49.5777 127.345 49.5381 126.132 49.6447C124.951 51.2958 124.196 53.1505 123.943 55.0239C123.924 55.4002 124.228 55.6711 124.62 55.6289C124.743 55.6156 124.864 55.5727 124.973 55.504L132.581 50.6597C131.692 50.2211 130.72 49.9193 129.697 49.7631Z" fill="#029BC5"/>
<path d="M113.117 58.6712L118.084 55.5342L122.711 63.4033L117.744 66.5402L113.117 58.6712Z" fill="#D5D6DB"/>
<path d="M109.992 61.7834C109.393 62.1626 109.154 62.8914 109.458 63.4111L109.95 64.2531C110.274 64.7595 111.013 64.8486 111.602 64.4519C112.162 64.0741 112.387 63.3874 112.117 62.8804L111.625 62.0384C111.321 61.5191 110.59 61.4049 109.992 61.7834V61.7834Z" fill="#3A556A"/>
<path d="M105.527 64.5559C104.929 64.935 104.69 65.6638 104.994 66.1835L105.486 67.0255C105.81 67.532 106.549 67.621 107.137 67.2243C107.697 66.8465 107.923 66.1599 107.653 65.6528L107.16 64.8109C106.857 64.2918 106.126 64.1775 105.527 64.5559V64.5559Z" fill="#3A556A"/>
<path d="M101.062 67.3292C100.464 67.7089 100.225 68.4368 100.529 68.956L101.021 69.798C101.345 70.3044 102.084 70.3935 102.673 69.9968C103.233 69.619 103.458 68.9324 103.188 68.4254L102.696 67.5834C102.392 67.0637 101.66 66.9499 101.062 67.3292V67.3292Z" fill="#3A556A"/>
<path d="M96.5973 70.1016C95.9994 70.4813 95.7611 71.2092 96.0647 71.7285L96.557 72.5704C96.8808 73.0769 97.6201 73.166 98.2084 72.7693C98.7682 72.3915 98.9937 71.7048 98.7239 71.1978L98.2316 70.3558C97.9274 69.8362 97.1959 69.7224 96.5973 70.1016V70.1016Z" fill="#3A556A"/>
<path d="M92.1334 72.8743C91.5352 73.2541 91.2967 73.9823 91.6005 74.5018L92.0931 75.3441C92.3967 75.8634 93.128 75.9771 93.7264 75.5981C94.3247 75.2191 94.5636 74.491 94.26 73.9717L93.7674 73.1294C93.4645 72.6096 92.7335 72.4951 92.1347 72.8735C92.1342 72.8738 92.1339 72.8739 92.1334 72.8743Z" fill="#3A556A"/>
<path d="M87.669 75.6467C87.0708 76.0265 86.8323 76.7548 87.1361 77.2743L87.6287 78.1166C87.9323 78.6359 88.6636 78.7496 89.2619 78.3706C89.8603 77.9916 90.0992 77.2634 89.7956 76.7442L89.303 75.9018C89 75.3821 88.269 75.2676 87.6703 75.6459C87.6698 75.6462 87.6693 75.6466 87.669 75.6467Z" fill="#3A556A"/>
<path d="M83.2044 78.4193C82.6062 78.7991 82.3677 79.5273 82.6714 80.0468L83.164 80.8891C83.4685 81.4078 84.2001 81.5204 84.7978 81.1409C85.3945 80.7621 85.6329 80.0355 85.3306 79.5168L84.838 78.6745C84.5345 78.1549 83.8033 78.0406 83.2044 78.4193Z" fill="#3A556A"/>
<path d="M78.7398 81.1918C78.1416 81.5716 77.9031 82.2998 78.2068 82.8193L78.6994 83.6616C79.0039 84.1804 79.7355 84.293 80.3332 83.9135C80.9299 83.5347 81.1683 82.808 80.866 82.2894L80.3734 81.447C80.0699 80.9274 79.3387 80.8131 78.7398 81.1918Z" fill="#3A556A"/>
<path d="M74.2755 83.9642C73.6773 84.344 73.4388 85.0722 73.7426 85.5917L74.2351 86.434C74.5396 86.9528 75.2712 87.0653 75.8689 86.6859C76.4656 86.307 76.704 85.5804 76.4017 85.0617L75.9092 84.2194C75.6054 83.7 74.8741 83.5856 74.2755 83.9642Z" fill="#3A556A"/>
<path d="M69.8097 86.7374C69.2113 87.1164 68.9724 87.8446 69.2761 88.3639L69.2767 88.365L69.7693 89.2073C70.0737 89.7261 70.8054 89.8387 71.4031 89.4592C71.9998 89.0803 72.2382 88.3537 71.9359 87.835L71.4433 86.9927C71.1398 86.473 70.4086 86.3587 69.8097 86.7374Z" fill="#3A556A"/>
<path d="M65.3465 89.5091C64.7481 89.8881 64.5092 90.6163 64.8129 91.1355L64.8135 91.1366L65.3061 91.9789C65.6106 92.4977 66.3422 92.6103 66.9399 92.2308C67.5366 91.852 67.775 91.1253 67.4728 90.6067L66.9802 89.7644C66.6764 89.2449 65.9451 89.1306 65.3465 89.5091Z" fill="#3A556A"/>
</svg>
