<svg width="100" height="35" viewBox="0 0 100 35" fill="none" xmlns="http://www.w3.org/2000/svg">
<rect width="100" height="35" rx="17.5" fill="#080809"/>
<path d="M21.7893 23.9998C19.408 23.9861 17.4382 19.1251 17.4382 16.6495C17.4382 12.6057 20.4718 11.7203 21.641 11.7203C22.1678 11.7203 22.7304 11.9273 23.2266 12.1103C23.5736 12.2381 23.9325 12.3699 24.1321 12.3699C24.2516 12.3699 24.5331 12.2578 24.7817 12.1593C25.3118 11.9483 25.9714 11.686 26.7395 11.686C26.7409 11.686 26.7427 11.686 26.7441 11.686C27.3176 11.686 29.0567 11.8119 30.1022 13.382L30.3471 13.7501L29.9947 14.016C29.4911 14.396 28.5724 15.089 28.5724 16.4619C28.5724 18.0878 29.6129 18.7132 30.1128 19.0139C30.3334 19.1467 30.5618 19.2835 30.5618 19.5829C30.5618 19.7784 29.0018 23.9756 26.7363 23.9756C26.182 23.9756 25.7901 23.809 25.4445 23.662C25.0948 23.5133 24.7931 23.3851 24.2946 23.3851C24.0419 23.3851 23.7224 23.5046 23.3841 23.6314C22.9218 23.8039 22.3985 23.9998 21.8048 23.9998H21.7893Z" fill="white"/>
<path d="M26.9795 8C27.0385 10.1274 25.5171 11.6033 23.9975 11.5107C23.7471 9.81297 25.5169 8 26.9795 8Z" fill="white"/>
<path d="M39.03 13H40.08L38.652 8.79999H37.428L36 13H37.05L37.26 12.34H38.82L39.03 13ZM37.548 11.44L38.04 9.898L38.532 11.44H37.548Z" fill="white"/>
<path d="M42.2049 10L41.5809 11.902L40.9569 10H39.9609L41.0709 13H42.0909L43.2009 10H42.2049Z" fill="white"/>
<path d="M45.592 10V10.282C45.394 10.054 45.1 9.916 44.698 9.916C43.912 9.916 43.264 10.606 43.264 11.5C43.264 12.394 43.912 13.084 44.698 13.084C45.1 13.084 45.394 12.946 45.592 12.718V13H46.492V10H45.592ZM44.878 12.232C44.464 12.232 44.164 11.95 44.164 11.5C44.164 11.05 44.464 10.768 44.878 10.768C45.292 10.768 45.592 11.05 45.592 11.5C45.592 11.95 45.292 12.232 44.878 12.232Z" fill="white"/>
<path d="M47.1523 13H48.0523V8.62H47.1523V13Z" fill="white"/>
<path d="M49.1609 9.736C49.4549 9.736 49.7009 9.49 49.7009 9.196C49.7009 8.902 49.4549 8.656 49.1609 8.656C48.8669 8.656 48.6209 8.902 48.6209 9.196C48.6209 9.49 48.8669 9.736 49.1609 9.736ZM48.7109 13H49.6109V10H48.7109V13Z" fill="white"/>
<path d="M52.0635 9.916C51.6615 9.916 51.3675 10.054 51.1695 10.282V8.79999H50.2695V13H51.1695V12.718C51.3675 12.946 51.6615 13.084 52.0635 13.084C52.8495 13.084 53.4975 12.394 53.4975 11.5C53.4975 10.606 52.8495 9.916 52.0635 9.916ZM51.8835 12.232C51.4695 12.232 51.1695 11.95 51.1695 11.5C51.1695 11.05 51.4695 10.768 51.8835 10.768C52.2975 10.768 52.5975 11.05 52.5975 11.5C52.5975 11.95 52.2975 12.232 51.8835 12.232Z" fill="white"/>
<path d="M54.0077 13H54.9077V8.62H54.0077V13Z" fill="white"/>
<path d="M56.3703 11.86H58.5003C58.5243 11.746 58.5363 11.626 58.5363 11.5C58.5363 10.594 57.8883 9.916 57.0123 9.916C56.0643 9.916 55.4163 10.606 55.4163 11.5C55.4163 12.394 56.0523 13.084 57.0783 13.084C57.6483 13.084 58.0923 12.874 58.3863 12.466L57.6663 12.052C57.5463 12.184 57.3363 12.28 57.0903 12.28C56.7603 12.28 56.4843 12.172 56.3703 11.86ZM56.3523 11.188C56.4363 10.882 56.6643 10.714 57.0063 10.714C57.2763 10.714 57.5463 10.84 57.6423 11.188H56.3523Z" fill="white"/>
<path d="M61.9868 13.084C62.8688 13.084 63.5768 12.394 63.5768 11.5C63.5768 10.606 62.8688 9.916 61.9868 9.916C61.1048 9.916 60.3968 10.606 60.3968 11.5C60.3968 12.394 61.1048 13.084 61.9868 13.084ZM61.9868 12.208C61.5968 12.208 61.2968 11.926 61.2968 11.5C61.2968 11.074 61.5968 10.792 61.9868 10.792C62.3768 10.792 62.6768 11.074 62.6768 11.5C62.6768 11.926 62.3768 12.208 61.9868 12.208Z" fill="white"/>
<path d="M65.8439 9.916C65.4479 9.916 65.1479 10.06 64.9859 10.282V10H64.0859V13H64.9859V11.362C64.9859 10.936 65.2139 10.744 65.5439 10.744C65.8319 10.744 66.0659 10.918 66.0659 11.29V13H66.9659V11.158C66.9659 10.348 66.4499 9.916 65.8439 9.916Z" fill="white"/>
<path d="M70.8419 10.864V10H70.2239V9.15999L69.3239 9.43V10H68.8439V10.864H69.3239V11.926C69.3239 12.766 69.6659 13.12 70.8419 13V12.184C70.4459 12.208 70.2239 12.184 70.2239 11.926V10.864H70.8419Z" fill="white"/>
<path d="M73.1095 9.916C72.7135 9.916 72.4135 10.06 72.2515 10.282V8.79999H71.3515V13H72.2515V11.362C72.2515 10.936 72.4795 10.744 72.8095 10.744C73.0975 10.744 73.3315 10.918 73.3315 11.29V13H74.2315V11.158C74.2315 10.348 73.7155 9.916 73.1095 9.916Z" fill="white"/>
<path d="M75.6535 11.86H77.7835C77.8075 11.746 77.8195 11.626 77.8195 11.5C77.8195 10.594 77.1715 9.916 76.2955 9.916C75.3475 9.916 74.6995 10.606 74.6995 11.5C74.6995 12.394 75.3355 13.084 76.3615 13.084C76.9315 13.084 77.3755 12.874 77.6695 12.466L76.9495 12.052C76.8295 12.184 76.6195 12.28 76.3735 12.28C76.0435 12.28 75.7675 12.172 75.6535 11.86ZM75.6355 11.188C75.7195 10.882 75.9475 10.714 76.2895 10.714C76.5595 10.714 76.8295 10.84 76.9255 11.188H75.6355Z" fill="white"/>
<path d="M41.05 24H42.8L40.42 17H38.38L36 24H37.75L38.1 22.9H40.7L41.05 24ZM38.58 21.4L39.4 18.83L40.22 21.4H38.58Z" fill="white"/>
<path d="M46.3369 18.86C45.6669 18.86 45.1769 19.09 44.8469 19.47V19H43.3469V26H44.8469V23.53C45.1769 23.91 45.6669 24.14 46.3369 24.14C47.6469 24.14 48.7269 22.99 48.7269 21.5C48.7269 20.01 47.6469 18.86 46.3369 18.86ZM46.0369 22.72C45.3469 22.72 44.8469 22.25 44.8469 21.5C44.8469 20.75 45.3469 20.28 46.0369 20.28C46.7269 20.28 47.2269 20.75 47.2269 21.5C47.2269 22.25 46.7269 22.72 46.0369 22.72Z" fill="white"/>
<path d="M52.5673 18.86C51.8973 18.86 51.4073 19.09 51.0773 19.47V19H49.5773V26H51.0773V23.53C51.4073 23.91 51.8973 24.14 52.5673 24.14C53.8773 24.14 54.9573 22.99 54.9573 21.5C54.9573 20.01 53.8773 18.86 52.5673 18.86ZM52.2673 22.72C51.5773 22.72 51.0773 22.25 51.0773 21.5C51.0773 20.75 51.5773 20.28 52.2673 20.28C52.9573 20.28 53.4573 20.75 53.4573 21.5C53.4573 22.25 52.9573 22.72 52.2673 22.72Z" fill="white"/>
<path d="M55.8078 24H57.3078V16.7H55.8078V24Z" fill="white"/>
<path d="M59.7455 22.1H63.2955C63.3355 21.91 63.3555 21.71 63.3555 21.5C63.3555 19.99 62.2755 18.86 60.8155 18.86C59.2355 18.86 58.1555 20.01 58.1555 21.5C58.1555 22.99 59.2155 24.14 60.9255 24.14C61.8755 24.14 62.6155 23.79 63.1055 23.11L61.9055 22.42C61.7055 22.64 61.3555 22.8 60.9455 22.8C60.3955 22.8 59.9355 22.62 59.7455 22.1ZM59.7155 20.98C59.8555 20.47 60.2355 20.19 60.8055 20.19C61.2555 20.19 61.7055 20.4 61.8655 20.98H59.7155Z" fill="white"/>
<path d="M69.2062 24.14C70.7262 24.14 71.8063 23.34 71.8063 21.99C71.8063 20.51 70.6163 20.14 69.5563 19.82C68.4663 19.49 68.2962 19.27 68.2962 18.95C68.2962 18.67 68.5462 18.42 69.0462 18.42C69.6862 18.42 70.0162 18.73 70.2562 19.23L71.6063 18.44C71.0963 17.41 70.1962 16.86 69.0462 16.86C67.8362 16.86 66.6963 17.64 66.6963 18.99C66.6963 20.33 67.7162 20.83 68.7562 21.12C69.8062 21.41 70.2062 21.58 70.2062 22.01C70.2062 22.28 70.0162 22.58 69.2562 22.58C68.4662 22.58 68.0362 22.19 67.7862 21.61L66.4062 22.41C66.7963 23.44 67.7362 24.14 69.2062 24.14Z" fill="white"/>
<path d="M75.3394 20.44V19H74.3094V17.6L72.8094 18.05V19H72.0094V20.44H72.8094V22.21C72.8094 23.61 73.3794 24.2 75.3394 24V22.64C74.6794 22.68 74.3094 22.64 74.3094 22.21V20.44H75.3394Z" fill="white"/>
<path d="M78.491 24.14C79.961 24.14 81.141 22.99 81.141 21.5C81.141 20.01 79.961 18.86 78.491 18.86C77.021 18.86 75.841 20.01 75.841 21.5C75.841 22.99 77.021 24.14 78.491 24.14ZM78.491 22.68C77.841 22.68 77.341 22.21 77.341 21.5C77.341 20.79 77.841 20.32 78.491 20.32C79.141 20.32 79.641 20.79 79.641 21.5C79.641 22.21 79.141 22.68 78.491 22.68Z" fill="white"/>
<path d="M83.4895 19.89V19H81.9895V24H83.4895V21.74C83.4895 20.75 84.3695 20.5 84.9895 20.6V18.9C84.3595 18.9 83.6895 19.22 83.4895 19.89Z" fill="white"/>
<path d="M86.8841 22.1H90.4341C90.4741 21.91 90.4941 21.71 90.4941 21.5C90.4941 19.99 89.4141 18.86 87.9541 18.86C86.3741 18.86 85.2941 20.01 85.2941 21.5C85.2941 22.99 86.3541 24.14 88.0641 24.14C89.0141 24.14 89.7541 23.79 90.2441 23.11L89.0441 22.42C88.8441 22.64 88.4941 22.8 88.0841 22.8C87.5341 22.8 87.0741 22.62 86.8841 22.1ZM86.8541 20.98C86.9941 20.47 87.3741 20.19 87.9441 20.19C88.3941 20.19 88.8441 20.4 89.0041 20.98H86.8541Z" fill="white"/>
</svg>
