<svg width="107" height="35" viewBox="0 0 107 35" fill="none" xmlns="http://www.w3.org/2000/svg">
<rect width="107" height="35" rx="17.5" fill="#080809"/>
<g clip-path="url(#clip0_2210_1663)">
<path d="M28.5074 17.0017L18.4639 26.673C17.9935 26.3515 17.7143 25.8169 17.7192 25.2473V8.7562C17.7143 8.18657 17.9935 7.65193 18.4639 7.33051L28.5074 17.0017Z" fill="#2196F3"/>
<path d="M32.0217 13.6236L28.5074 17.0018L18.4639 7.33053C18.5017 7.3012 18.5411 7.27392 18.5819 7.2488C19.1127 6.92708 19.7757 6.9167 20.3164 7.22156L32.0217 13.6236Z" fill="#4CAF50"/>
<path d="M36.2807 17.0018C36.2873 17.6448 35.9378 18.2388 35.3726 18.5456L32.0218 20.3799L28.5074 17.0018L32.0218 13.6237L35.3726 15.458C35.9378 15.7647 36.2873 16.3587 36.2807 17.0018Z" fill="#F0BB1F"/>
<path d="M32.0217 20.3799L20.3164 26.782C19.7745 27.0821 19.114 27.0717 18.5819 26.7547C18.5411 26.7296 18.5017 26.7023 18.4639 26.673L28.5074 17.0018L32.0217 20.3799Z" fill="#F15A2B"/>
</g>
<path d="M48.024 11.88H45.216V13H46.712C46.512 13.536 46.024 13.864 45.28 13.864C44.192 13.864 43.52 13.168 43.52 12.216C43.52 11.232 44.224 10.536 45.168 10.536C45.8 10.536 46.304 10.824 46.536 11.192L47.624 10.568C47.152 9.81599 46.248 9.28799 45.176 9.28799C43.528 9.28799 42.24 10.584 42.24 12.208C42.24 13.816 43.504 15.112 45.264 15.112C46.832 15.112 48.024 14.072 48.024 12.36V11.88Z" fill="white"/>
<path d="M49.6256 13.768V12.776H51.6256V11.56H49.6256V10.632H51.8256V9.39999H48.3456V15H51.8656V13.768H49.6256Z" fill="white"/>
<path d="M55.9478 9.39999H51.7878V10.632H53.2278V15H54.5078V10.632H55.9478V9.39999Z" fill="white"/>
<path d="M57.7081 9.39999V15H58.9881V9.39999H57.7081Z" fill="white"/>
<path d="M63.3103 9.39999H59.1503V10.632H60.5903V15H61.8703V10.632H63.3103V9.39999Z" fill="white"/>
<path d="M67.7426 15.112C69.3506 15.112 70.6546 13.848 70.6546 12.2C70.6546 10.552 69.3506 9.28799 67.7426 9.28799C66.1346 9.28799 64.8306 10.552 64.8306 12.2C64.8306 13.848 66.1346 15.112 67.7426 15.112ZM67.7426 13.864C66.8306 13.864 66.1106 13.2 66.1106 12.2C66.1106 11.2 66.8306 10.536 67.7426 10.536C68.6546 10.536 69.3746 11.2 69.3746 12.2C69.3746 13.2 68.6546 13.864 67.7426 13.864Z" fill="white"/>
<path d="M74.0953 9.39999V12.44L71.9353 9.39999H70.9753V15H72.2553V11.96L74.4153 15H75.3753V9.39999H74.0953Z" fill="white"/>
<path d="M48.024 21.392V21.608C48.024 22.3067 47.776 22.896 47.28 23.376C46.784 23.8507 46.1307 24.088 45.32 24.088C44.4667 24.088 43.7627 23.8107 43.208 23.256C42.6533 22.696 42.376 22.0107 42.376 21.2C42.376 20.3893 42.6507 19.7067 43.2 19.152C43.7493 18.592 44.4453 18.312 45.288 18.312C45.8 18.312 46.2693 18.4347 46.696 18.68C47.128 18.9253 47.4613 19.2533 47.696 19.664L47.32 19.888C47.1333 19.536 46.856 19.2533 46.488 19.04C46.1253 18.8267 45.7253 18.72 45.288 18.72C44.5627 18.72 43.9653 18.96 43.496 19.44C43.032 19.9147 42.8 20.5013 42.8 21.2C42.8 21.8987 43.0347 22.488 43.504 22.968C43.9733 23.4427 44.5787 23.68 45.32 23.68C45.976 23.68 46.5067 23.5013 46.912 23.144C47.3173 22.7867 47.544 22.336 47.592 21.792H45.216V21.392H48.024Z" fill="white"/>
<path d="M53.7026 23.248C53.1426 23.808 52.4599 24.088 51.6546 24.088C50.8493 24.088 50.1666 23.808 49.6066 23.248C49.0466 22.6827 48.7666 22 48.7666 21.2C48.7666 20.4 49.0466 19.72 49.6066 19.16C50.1666 18.5947 50.8493 18.312 51.6546 18.312C52.4599 18.312 53.1426 18.5947 53.7026 19.16C54.2626 19.72 54.5426 20.4 54.5426 21.2C54.5426 22 54.2626 22.6827 53.7026 23.248ZM49.9026 22.96C50.3826 23.44 50.9666 23.68 51.6546 23.68C52.3426 23.68 52.9239 23.44 53.3986 22.96C53.8786 22.4747 54.1186 21.888 54.1186 21.2C54.1186 20.512 53.8786 19.928 53.3986 19.448C52.9239 18.9627 52.3426 18.72 51.6546 18.72C50.9666 18.72 50.3826 18.9627 49.9026 19.448C49.4279 19.928 49.1906 20.512 49.1906 21.2C49.1906 21.888 49.4279 22.4747 49.9026 22.96Z" fill="white"/>
<path d="M60.2339 23.248C59.6739 23.808 58.9912 24.088 58.1859 24.088C57.3805 24.088 56.6979 23.808 56.1379 23.248C55.5779 22.6827 55.2979 22 55.2979 21.2C55.2979 20.4 55.5779 19.72 56.1379 19.16C56.6979 18.5947 57.3805 18.312 58.1859 18.312C58.9912 18.312 59.6739 18.5947 60.2339 19.16C60.7939 19.72 61.0739 20.4 61.0739 21.2C61.0739 22 60.7939 22.6827 60.2339 23.248ZM56.4339 22.96C56.9139 23.44 57.4979 23.68 58.1859 23.68C58.8739 23.68 59.4552 23.44 59.9299 22.96C60.4099 22.4747 60.6499 21.888 60.6499 21.2C60.6499 20.512 60.4099 19.928 59.9299 19.448C59.4552 18.9627 58.8739 18.72 58.1859 18.72C57.4979 18.72 56.9139 18.9627 56.4339 19.448C55.9592 19.928 55.7219 20.512 55.7219 21.2C55.7219 21.888 55.9592 22.4747 56.4339 22.96Z" fill="white"/>
<path d="M67.4771 21.392V21.608C67.4771 22.3067 67.2291 22.896 66.7331 23.376C66.2371 23.8507 65.5838 24.088 64.7731 24.088C63.9198 24.088 63.2158 23.8107 62.6611 23.256C62.1064 22.696 61.8291 22.0107 61.8291 21.2C61.8291 20.3893 62.1038 19.7067 62.6531 19.152C63.2024 18.592 63.8984 18.312 64.7411 18.312C65.2531 18.312 65.7224 18.4347 66.1491 18.68C66.5811 18.9253 66.9144 19.2533 67.1491 19.664L66.7731 19.888C66.5864 19.536 66.3091 19.2533 65.9411 19.04C65.5784 18.8267 65.1784 18.72 64.7411 18.72C64.0158 18.72 63.4184 18.96 62.9491 19.44C62.4851 19.9147 62.2531 20.5013 62.2531 21.2C62.2531 21.8987 62.4878 22.488 62.9571 22.968C63.4264 23.4427 64.0318 23.68 64.7731 23.68C65.4291 23.68 65.9598 23.5013 66.3651 23.144C66.7704 22.7867 66.9971 22.336 67.0451 21.792H64.6691V21.392H67.4771Z" fill="white"/>
<path d="M68.9637 23.6H71.6037V24H68.5397V18.4H68.9637V23.6Z" fill="white"/>
<path d="M72.9091 23.6H75.7091V24H72.4851V18.4H75.6691V18.8H72.9091V20.976H75.4691V21.376H72.9091V23.6Z" fill="white"/>
<path d="M80.7875 18.4C81.2888 18.4 81.7048 18.5653 82.0355 18.896C82.3662 19.2267 82.5315 19.64 82.5315 20.136C82.5315 20.632 82.3662 21.0453 82.0355 21.376C81.7048 21.7013 81.2888 21.864 80.7875 21.864H79.3075V24H78.8835V18.4H80.7875ZM80.7875 21.464C81.1715 21.464 81.4862 21.3387 81.7315 21.088C81.9822 20.8373 82.1075 20.52 82.1075 20.136C82.1075 19.7467 81.9822 19.4267 81.7315 19.176C81.4862 18.9253 81.1715 18.8 80.7875 18.8H79.3075V21.464H80.7875Z" fill="white"/>
<path d="M84.0028 23.6H86.6428V24H83.5788V18.4H84.0028V23.6Z" fill="white"/>
<path d="M91.4484 24L90.9044 22.576H88.0964L87.5524 24H87.1044L89.2804 18.4H89.7284L91.8964 24H91.4484ZM88.2564 22.176H90.7524L89.5044 18.92L88.2564 22.176Z" fill="white"/>
<path d="M95.8809 18.4L93.8409 21.696V24H93.4169V21.696L91.3769 18.4H91.8569L93.6329 21.288L95.4009 18.4H95.8809Z" fill="white"/>
<defs>
<clipPath id="clip0_2210_1663">
<rect width="20" height="20" fill="white" transform="translate(17 7)"/>
</clipPath>
</defs>
</svg>
